<svg xmlns="http://www.w3.org/2000/svg" viewBox="0 0 859.95 660.55"><defs><style>.cls-1{fill:#1d1d1b;stroke:#1d1d1b;}.cls-1,.cls-2{stroke-miterlimit:10;}.cls-2{fill:#fff;stroke:#fff;}</style></defs><title>logo dragon</title><g id="Cou"><path class="cls-1" d="M1306.51,1033.42a183.74,183.74,0,0,1,130.19,125.92,26,26,0,0,1-4.38-13c-2.22-51.7,174-96.29,205.37-104-13-11-99.88-85.29-82.5-120,1.11-2.21,5.17-4.9,4.5-6-1.65-2.73-25.39,13.73-54.08,21.19-30.24,7.85-57.86,3.59-82.93-.28-32.86-5.07-44.19-12.44-63.69-5.61-16,5.61-25.7,16.64-30.81,22.61C1302.37,984.42,1305.38,1023.16,1306.51,1033.42Z" transform="translate(-818.75 -523.98)"/><path class="cls-1" d="M1678.17,858.94c-.94-2.92-26,9-75,10-35.3.73-69.46-4.49-99-9-31.15-4.76-46.66-8.83-71-4-20.7,4.11-34.92,12.1-36,10-1.35-2.62,18.57-19.4,43.16-27.48,32.67-10.73,62.13-2.35,73.84.48,32.72,7.88,83.62,10.07,162-17l-8-47c-51.52-18.8-155.89-47.46-265-7a324.72,324.72,0,0,0-49,23,780,780,0,0,0-60,95c-10.73,20.06-20,39.49-28,58a254.4,254.4,0,0,0,24-12,263.37,263.37,0,0,0,74-63l-15,43a124.55,124.55,0,0,1,18.58-4.08c38.59-5.42,69.74,9,77.42,12.08C1515.65,948.5,1680.6,866.46,1678.17,858.94Z" transform="translate(-818.75 -523.98)"/></g><g id="Tete"><g id="Machoire"><path class="cls-1" d="M1372.17,1088.94c.62-2.72-6.89-5.29-48-32-29.39-19.09-32.15-22.06-34-25-4.47-7.1-16.68-34.8,52-118-64.57,63.24-87.47,73.49-95,68-4.81-3.5-4-13.88-3-26a124,124,0,0,1,14.48-48.74c48.87-88.91,73.63-133.68,90.15-148.75,19-17.36,54.35-44.59,109.37-61.51-47.45-4.22-80.07,5.54-100.31,14.42C1293,739.84,1283,791.06,1189.21,857c-34.25,24.09-57.61,34.62-58,33.94-.64-1,52.49-21.46,73.59-64.2,3.36-6.81,10.48-23.43,25.41-43.8,1.73-2.36,6.35-8.57,14.21-17.55,11.66-13.31,20.6-21.47,70.56-62.88,14.1-11.68,22.89-18.85,37.22-24.57,11-4.41,15-3.83,22.75-6.66,23.79-8.67,35.93-32.21,44.25-48.34,17.94-34.79,17.62-68.95,16-87-18.37,58.78-46.65,87.63-68,103-51.81,37.3-103.8,24.72-158,72a189.91,189.91,0,0,0-43,55,154.32,154.32,0,0,1,20.38-45c7.73-11.61,27.73-41.63,62.83-54.66,13.19-4.89,21-4.6,31.79-13.31,12.61-10.17,17.71-23.24,21-32,11-29.17,6.53-56.68,3-71-8,33.26-22.44,52.25-33,63-41.5,42.27-90.43,25.36-137,72-23.11,23.15-32.9,49.19-35,48s7.42-27.23,25-52c21-29.59,36.2-33,49-51,12-16.86,22-46.7,7-103-3.87,49.43-20.07,80.15-34,99-37.47,50.7-82.75,48.25-106,102-11.75,27.18-5.34,39.76-23,66-11.54,17.15-27.06,30.77-58,48-28.59,15.92-74.48,37.22-138,50-2.89,10.17-5.09,24.52.75,38.43,7.27,17.33,19.69,16.56,30.25,31.57,20.39,29-4.3,62.59,13.75,81.5,5.89,6.18,17.24,11.73,41.25,8.5a66.45,66.45,0,0,1-28-39c15.47,7.38,31.11,13.94,33,11,2.58-4-21.79-23.75-20-26s28.88,17.55,32,14c2.51-2.86-13.07-18-10-22,3.79-5,32.42,11.65,34,9,1.38-2.31-19.48-16.52-18-19s24.09,9.12,26,6c1.37-2.24-10.35-8.22-10-16,.42-9.31,17.93-17,32-20,21.82-4.6,33,2.73,58,5.27,17.86,1.82,30.21-.11,54.92-4,75.06-11.71,137.09-69.11,140.11-65.3,2.15,2.72-27.12,34.92-75,69a568.63,568.63,0,0,1-147,75,49.61,49.61,0,0,0-21,19,48.17,48.17,0,0,0-6,16l-20-6-6,22-17-5-7,28c-1.07-23.91-2.09-32-3-32-2.26,0-1.8,50.26-9,51-3.47.35-7.65-10.91-9.33-17.17-3.89-14.44-.54-24.57-1.67-24.83-2.09-.48-23.63,31.82-11.5,64.5,10,27,36.62,36.94,41,38.5,18.9-23.81,54.37-62.45,109.38-87.48C1191.77,1031.52,1369.14,1102.24,1372.17,1088.94Z" transform="translate(-818.75 -523.98)"/></g><g id="Yeux"><path class="cls-2" d="M934.17,955.94c-.93-1.06,6.5-8.94,7.5-10,21.64-22.95,85.15-13.58,153-26,13.93-2.55,35.22-6.57,61-17.5a266.49,266.49,0,0,0,81.5-54.5,144.38,144.38,0,0,1-12.5,19c-37.73,48.51-97.28,60.26-115,63.5-64.14,11.74-131.72-4.12-160.5,16.5C947.26,948.31,935.26,957.19,934.17,955.94Z" transform="translate(-818.75 -523.98)"/><path class="cls-2" d="M1014.67,860.94c-.76-1.08,6-7,8-8.75,3.6-3.16,14.19-12.43,25.54-17.62,24.29-11.11,38.67,3.1,64.78-6.88a76,76,0,0,0,22.68-13.75,40.56,40.56,0,0,1-12,18c-8.69,7.22-16,6-37.46,9.1-22.86,3.34-43,6.29-61,15.65C1022.37,858.15,1015.38,862,1014.67,860.94Z" transform="translate(-818.75 -523.98)"/><path class="cls-2" d="M1045.69,891.43c-3.89.1-8.35-.85-17.27-2.74-13.82-2.94-14.63-4.94-14.75-5.75-.31-2,2.79-3.4,9-8.5,7.47-6.14,9-8.07,12-10.5,12.35-9.86,28.64-11.21,38.69-12.27,4.86-.51,7.92-.44,13.81-1.73,7.59-1.66,11.6-3.77,12.5-2.5s-1.83,4.32-6.5,10c-11.89,14.46-10,13-12.5,15.5C1075.6,878.08,1062.87,891,1045.69,891.43Z" transform="translate(-818.75 -523.98)"/></g></g></svg>